<svg width="414" height="612" viewBox="0 0 414 612" fill="none" xmlns="http://www.w3.org/2000/svg">
<g opacity="0.1">
<path d="M-129.16 418.207C12.4028 419.28 -107.015 548.34 3.60956 616.668C104.991 679.287 270.835 525.282 301.395 733.014C322.318 875.236 370.333 926.606 488.531 952.983" stroke="#999999"/>
<path d="M-123.039 410.3C18.5244 411.373 -100.893 540.432 9.73114 608.761C111.112 671.38 276.956 517.375 307.517 725.106C328.439 867.329 376.454 918.698 494.652 945.076" stroke="#999999"/>
<path d="M-116.917 402.393C24.646 403.465 -94.7718 532.525 15.8527 600.853C117.234 663.472 283.078 509.468 313.638 717.199C334.561 859.421 382.576 910.791 500.774 937.168" stroke="#999999"/>
<path d="M-110.796 394.485C30.7676 395.558 -88.6502 524.618 21.9743 592.946C123.355 655.565 289.2 501.56 319.76 709.292C340.683 851.514 388.697 902.884 506.895 929.261" stroke="#999999"/>
<path d="M-104.674 386.578C36.8892 387.651 -82.5286 516.71 28.0959 585.039C129.477 647.657 295.321 493.653 325.881 701.384C346.804 843.607 394.819 894.976 513.017 921.354" stroke="#999999"/>
<path d="M-98.5524 378.67C43.0108 379.743 -76.407 508.803 34.2175 577.131C135.599 639.75 301.443 485.746 332.003 693.477C352.926 835.699 400.941 887.069 519.139 913.446" stroke="#999999"/>
<path d="M-92.4308 370.763C49.1324 371.836 -70.2854 500.896 40.3391 569.224C141.72 631.843 307.564 477.838 338.125 685.57C359.047 827.792 407.062 879.162 525.26 905.539" stroke="#999999"/>
<path d="M-86.3092 362.856C55.254 363.929 -64.1638 492.988 46.4607 561.317C147.842 623.935 313.686 469.931 344.246 677.662C365.169 819.885 413.184 871.254 531.382 897.632" stroke="#999999"/>
<path d="M-80.1876 354.948C61.3756 356.021 -58.0422 485.081 52.5823 553.409C153.963 616.028 319.808 462.024 350.368 669.755C371.291 811.977 419.305 863.347 537.503 889.724" stroke="#999999"/>
<path d="M-74.066 347.041C67.4972 348.114 -51.9206 477.174 58.7039 545.502C160.085 608.121 325.929 454.116 356.489 661.848C377.412 804.07 425.427 855.44 543.625 881.817" stroke="#999999"/>
<path d="M-67.9444 339.134C73.6188 340.207 -45.799 469.266 64.8255 537.595C166.207 600.213 332.051 446.209 362.611 653.94C383.534 796.163 431.549 847.532 549.746 873.91" stroke="#999999"/>
<path d="M-61.8228 331.226C79.7404 332.299 -39.6774 461.359 70.9471 529.687C172.328 592.306 338.172 438.302 368.733 646.033C389.655 788.255 437.67 839.625 555.868 866.002" stroke="#999999"/>
<path d="M-55.7012 323.319C85.862 324.392 -33.5558 453.452 77.0687 521.78C178.45 584.399 344.294 430.394 374.854 638.126C395.777 780.348 443.792 831.718 561.99 858.095" stroke="#999999"/>
<path d="M-49.5796 315.412C91.9836 316.485 -27.4342 445.544 83.1903 513.872C184.571 576.491 350.416 422.487 380.976 630.218C401.899 772.441 449.913 823.81 568.111 850.188" stroke="#999999"/>
<path d="M-43.458 307.504C98.1051 308.577 -21.3126 437.637 89.3119 505.965C190.693 568.584 356.537 414.58 387.097 622.311C408.02 764.533 456.035 815.903 574.233 842.28" stroke="#999999"/>
<path d="M-37.3364 299.597C104.227 300.67 -15.191 429.73 95.4335 498.058C196.815 560.677 362.659 406.672 393.219 614.404C414.142 756.626 462.157 807.996 580.354 834.373" stroke="#999999"/>
<path d="M-31.2148 291.69C110.348 292.763 -9.06943 421.822 101.555 490.15C202.936 552.769 368.78 398.765 399.34 606.496C420.263 748.719 468.278 800.088 586.476 826.466" stroke="#999999"/>
<path d="M-25.0932 283.782C116.47 284.855 -2.94782 413.915 107.677 482.243C209.058 544.862 374.902 390.857 405.462 598.589C426.385 740.811 474.4 792.181 592.598 818.558" stroke="#999999"/>
<path d="M-18.9716 275.875C122.592 276.948 3.17376 406.008 113.798 474.336C215.179 536.955 381.023 382.95 411.584 590.682C432.507 732.904 480.521 784.273 598.719 810.651" stroke="#999999"/>
<path d="M-12.85 267.968C128.713 269.041 9.29537 398.1 119.92 466.428C221.301 529.047 387.145 375.043 417.705 582.774C438.628 724.997 486.643 776.366 604.841 802.744" stroke="#999999"/>
</g>
</svg>
