<svg width="414" height="785" viewBox="0 0 414 785" fill="none" xmlns="http://www.w3.org/2000/svg">
<path d="M121.434 -116.978C248.27 -54.0989 84.4342 9.73434 154.033 119.564C217.817 220.216 434.314 154.255 370.943 354.431C327.557 491.481 348.269 558.676 443.026 634.092" stroke="#F2F2F2"/>
<path d="M130.397 -121.411C257.234 -58.5326 93.3977 5.3007 162.997 115.13C226.781 215.782 443.277 149.821 379.907 349.997C336.52 487.047 357.232 554.243 451.99 629.658" stroke="#F2F2F2"/>
<path d="M139.361 -125.845C266.197 -62.9662 102.361 0.86706 171.96 110.696C235.744 211.349 452.241 145.388 388.87 345.564C345.484 482.613 366.196 549.809 460.953 625.225" stroke="#F2F2F2"/>
<path d="M148.324 -130.279C275.161 -67.3998 111.324 -3.56658 180.924 106.263C244.708 206.915 461.204 140.954 397.834 341.13C354.447 478.18 375.159 545.375 469.917 620.791" stroke="#F2F2F2"/>
<path d="M157.287 -134.712C284.124 -71.8335 120.288 -8.00022 189.887 101.829C253.671 202.481 470.168 136.52 406.797 336.696C363.41 473.746 384.123 540.942 478.88 616.357" stroke="#F2F2F2"/>
<path d="M166.251 -139.146C293.087 -76.2671 129.251 -12.4339 198.851 97.3954C262.634 198.048 479.131 132.087 415.76 332.263C372.374 469.312 393.086 536.508 487.843 611.924" stroke="#F2F2F2"/>
<path d="M175.214 -143.579C302.051 -80.7008 138.215 -16.8675 207.814 92.9617C271.598 193.614 488.094 127.653 424.724 327.829C381.337 464.879 402.049 532.074 496.807 607.49" stroke="#F2F2F2"/>
<path d="M184.178 -148.013C311.014 -85.1344 147.178 -21.3011 216.777 88.5281C280.561 189.18 497.058 123.219 433.687 323.395C390.301 460.445 411.013 527.641 505.77 603.056" stroke="#F2F2F2"/>
<path d="M193.141 -152.447C319.978 -89.568 156.142 -25.7348 225.741 84.0945C289.525 184.747 506.021 118.786 442.651 318.962C399.264 456.011 419.976 523.207 514.734 598.623" stroke="#F2F2F2"/>
<path d="M202.104 -156.88C328.941 -94.0017 165.105 -30.1684 234.704 79.6608C298.488 180.313 514.985 114.352 451.614 314.528C408.228 451.578 428.94 518.773 523.697 594.189" stroke="#F2F2F2"/>
<path d="M211.068 -161.314C337.905 -98.4353 174.068 -34.6021 243.668 75.2272C307.451 175.879 523.948 109.919 460.577 310.094C417.191 447.144 437.903 514.34 532.66 589.755" stroke="#F2F2F2"/>
<path d="M220.031 -165.748C346.868 -102.869 183.032 -39.0357 252.631 70.7935C316.415 171.446 532.912 105.485 469.541 305.661C426.154 442.71 446.867 509.906 541.624 585.322" stroke="#F2F2F2"/>
<path d="M228.995 -170.181C355.831 -107.303 191.995 -43.4694 261.595 66.3599C325.378 167.012 541.875 101.051 478.504 301.227C435.118 438.277 455.83 505.472 550.587 580.888" stroke="#F2F2F2"/>
<path d="M237.958 -174.615C364.795 -111.736 200.959 -47.903 270.558 61.9263C334.342 162.579 550.838 96.6176 487.468 296.794C444.081 433.843 464.793 501.039 559.551 576.455" stroke="#F2F2F2"/>
<path d="M246.922 -179.049C373.758 -116.17 209.922 -52.3366 279.521 57.4926C343.305 158.145 559.802 92.184 496.431 292.36C453.045 429.41 473.757 496.605 568.514 572.021" stroke="#F2F2F2"/>
<path d="M255.885 -183.482C382.722 -120.604 218.886 -56.7703 288.485 53.059C352.269 153.711 568.765 87.7503 505.395 287.926C462.008 424.976 482.72 492.172 577.478 567.587" stroke="#F2F2F2"/>
<path d="M264.848 -187.916C391.685 -125.037 227.849 -61.2039 297.448 48.6253C361.232 149.278 577.729 83.3167 514.358 283.493C470.971 420.542 491.684 487.738 586.441 563.154" stroke="#F2F2F2"/>
<path d="M273.812 -192.35C400.649 -129.471 236.812 -65.6375 306.412 44.1917C370.195 144.844 586.692 78.8831 523.321 279.059C479.935 416.109 500.647 483.304 595.404 558.72" stroke="#F2F2F2"/>
<path d="M282.775 -196.783C409.612 -133.904 245.776 -70.0712 315.375 39.7581C379.159 140.41 595.655 74.4494 532.285 274.625C488.898 411.675 509.61 478.871 604.368 554.286" stroke="#F2F2F2"/>
<path d="M291.739 -201.217C418.575 -138.338 254.739 -74.5048 324.338 35.3244C388.122 135.977 604.619 70.0158 541.248 270.192C497.862 407.241 518.574 474.437 613.331 549.853" stroke="#F2F2F2"/>
</svg>
