<svg width="190" height="129" viewBox="0 0 190 129" fill="none" xmlns="http://www.w3.org/2000/svg">
<path d="M164.924 63.4944L164.931 63.4967C169.509 65.1397 173.75 67.8541 177.136 71.4169C180.499 74.9562 183.04 79.2883 184.466 83.9171M164.924 63.4944L180.643 85.0945M164.924 63.4944C160.293 61.8415 155.305 61.3203 150.471 61.9185L150.469 61.9187C149.545 62.0334 148.631 62.1898 147.729 62.386C148.3 61.4822 148.798 60.5298 149.218 59.5365C151.295 54.6654 151.315 49.2678 149.33 44.3726L149.327 44.3654C147.343 39.4978 143.572 35.6336 138.704 33.5802C134.768 31.9103 130.472 31.5641 126.371 32.5594C126.43 28.125 125.555 23.6687 123.776 19.5878C122.266 16.0677 120.093 12.8804 117.472 10.1599L114.375 6.94475L111.518 10.3747C110.952 11.0541 110.343 11.622 109.706 12.0611L109.69 12.0724L109.673 12.0839C108.41 12.9733 106.942 13.5661 105.421 13.7989C103.924 14.0282 102.359 13.8922 100.895 13.4092L100.894 13.4087C99.6134 12.9869 98.4744 12.3391 97.4509 11.447M164.924 63.4944L97.4509 11.447M184.466 83.9171L180.643 85.0945M184.466 83.9171C184.466 83.9166 184.465 83.9162 184.465 83.9157L180.643 85.0945M184.466 83.9171C185.918 88.6276 186.215 93.6441 185.392 98.4563C184.569 103.274 182.601 107.917 179.671 111.852M180.643 85.0945C181.907 89.193 182.168 93.5749 181.449 97.7824C180.73 101.99 179.009 106.045 176.459 109.467M179.671 111.852C179.672 111.85 179.673 111.849 179.674 111.847L176.459 109.467M179.671 111.852C176.752 115.793 172.913 119.036 168.537 121.238C164.255 123.392 159.471 124.563 154.663 124.606M179.671 111.852C179.669 111.853 179.668 111.855 179.667 111.857L176.459 109.467M176.459 109.467L154.663 124.606M154.663 124.606L154.858 124.548C154.833 124.555 154.649 124.607 154.383 124.607C154.477 124.607 154.57 124.607 154.663 124.606ZM154.663 124.606L154.295 124.716H153.708H36.5317H35.9445L35.586 124.609M154.663 124.606L153.708 120.716H36.5317C36.3138 120.651 36.0741 120.607 35.8344 120.607M35.586 124.609C35.6828 124.609 35.7795 124.608 35.8763 124.607L35.859 122.958L35.8344 120.607M35.586 124.609C30.9017 124.613 26.2151 123.541 22.0008 121.506C17.7119 119.436 13.8728 116.371 10.9198 112.616C7.97462 108.871 5.87927 104.431 4.87878 99.7524C3.88085 95.0853 3.95435 90.1745 5.10461 85.5467L8.98649 86.5115L5.10461 85.5467C6.25198 80.9305 8.46873 76.54 11.5493 72.8821C14.6126 69.2445 18.525 66.2732 22.9128 64.3419C27.2782 62.4204 32.085 61.4981 36.8526 61.6729C38.7521 61.7426 40.6448 61.9896 42.4992 62.4031C41.1243 60.2861 40.1323 57.9256 39.6422 55.371C39.1281 52.6913 39.1516 49.9577 39.7539 47.271C40.3569 44.5592 41.5076 42.0735 43.1045 39.8803L43.114 39.8673L43.1235 39.8544C44.7453 37.6642 46.7602 35.8362 49.1308 34.446L49.1456 34.4373L49.1605 34.4287C51.5127 33.0764 54.1101 32.1958 56.8621 31.893C59.5687 31.5951 62.3021 31.8368 64.9371 32.6596C65.0881 32.7063 65.2385 32.7547 65.3883 32.805C64.5665 30.5953 64.1303 28.2466 64.1303 25.8626C64.1303 23.2916 64.6165 20.7192 65.6338 18.2919C66.6226 15.8807 68.073 13.7244 69.9109 11.8832C71.7751 9.99353 73.9696 8.57975 76.3205 7.59092L76.3384 7.5834L76.3563 7.57605C78.7411 6.60009 81.3033 6.07901 83.9078 6.07901C86.4777 6.07901 89.0489 6.56529 91.4752 7.58257C93.5446 8.42957 95.4383 9.60996 97.1125 11.1201L97.4009 11.3802L97.4509 11.447M35.586 124.609L35.382 124.548C35.4519 124.569 35.6048 124.607 35.8344 124.607V123.04V120.607M35.8344 120.607L97.4509 11.447" stroke="white" stroke-width="8"/>
<path d="M64.6866 79.0788L64.6866 79.0789L64.694 79.0834L90.6195 94.7758C91.1266 95.0911 91.7002 95.2507 92.276 95.2507C93.0896 95.2507 93.9191 94.9396 94.5347 94.2996L129.794 59.7665L129.794 59.7665L129.802 59.759C131.055 58.5053 131.007 56.4988 129.78 55.2712C128.528 54.0188 126.525 54.0651 125.297 55.2885L91.8039 88.0238L68.0253 73.6491C68.0238 73.6482 68.0224 73.6473 68.0209 73.6464C66.5222 72.7246 64.5596 73.2061 63.6416 74.6945C62.7169 76.1937 63.1972 78.1595 64.6866 79.0788Z" fill="white" stroke="white" stroke-width="2"/>
</svg>
