<svg width="27" height="27" viewBox="0 0 27 27" fill="none" xmlns="http://www.w3.org/2000/svg">
<path fill-rule="evenodd" clip-rule="evenodd" d="M20.2583 25.0167C14.0405 28.6065 6.08979 26.4761 2.49994 20.2583C-1.08991 14.0405 1.04047 6.08985 7.25827 2.5C13.1847 -0.921615 20.6854 0.853412 24.4838 6.41125L24.5166 6.39231L25.0166 7.25833L25.5166 8.12436L25.4838 8.1433C28.3978 14.2118 26.1847 21.595 20.2583 25.0167ZM23.7457 9.14678C26.1114 14.2548 24.2276 20.4156 19.2583 23.2846C14.289 26.1536 8.01162 24.7047 4.77083 20.1019L23.7457 9.14678ZM22.7457 7.41473C19.5049 2.81197 13.2276 1.36303 8.25827 4.23205C3.28898 7.10107 1.40512 13.2619 3.77083 18.3699L22.7457 7.41473Z" fill="#C4C4C4"/>
</svg>
