<svg width="40" height="32" viewBox="0 0 40 32" fill="none" xmlns="http://www.w3.org/2000/svg">
<path d="M31.2066 1.91998C20.8066 -4.88002 21.2066 8.92017 10.7066 4.41998C0.206549 -0.0802078 0.706576 12.4201 6.7066 14.9201C12.7066 17.4201 4.70658 17.9201 0.706576 23.4201C-3.29342 28.9201 10.7066 30.4201 17.2066 23.4201C23.7066 16.4201 21.2066 21.4201 31.2066 23.4201C41.2066 25.4201 40.7066 18.4201 38.2066 14.9201C35.7066 11.4201 31.2066 15.9201 31.2066 12.4201C31.2066 8.92006 44.2066 10.42 31.2066 1.91998Z" fill="#C4C4C4"/>
<path d="M22.0143 24.4202C19.7989 24.4202 18.322 25.9676 17.8605 26.7413C13.0143 29.8361 18.2066 32.7413 18.2066 30.4202C18.2066 28.0991 19.2451 30.7413 22.7066 28.4202C26.1681 26.0991 24.7836 24.4202 22.0143 24.4202Z" fill="#C4C4C4"/>
</svg>
