<svg width="27" height="17" viewBox="0 0 27 17" fill="none" xmlns="http://www.w3.org/2000/svg">
<path d="M25.8172 9.84828C25.3598 9.37261 24.7838 9.00749 24.1604 8.7864C23.5336 8.56532 22.856 8.49498 22.1987 8.57537C21.7345 8.63231 21.2873 8.7663 20.8671 8.96729C20.6977 9.04768 20.4945 8.97734 20.4131 8.8132C20.3894 8.76296 20.3793 8.71271 20.3793 8.65911C20.3793 8.55527 20.4301 8.45478 20.5216 8.38778C20.8909 8.1265 21.1789 7.77143 21.355 7.35941C21.6125 6.76315 21.6159 6.10325 21.3686 5.5003C21.1213 4.90069 20.6537 4.42837 20.0506 4.17714C19.4679 3.93261 18.8241 3.91921 18.2312 4.1403C18.2041 4.15369 18.177 4.16374 18.1499 4.17044C17.9839 4.22404 17.7975 4.1403 17.7297 3.97616C17.6925 3.88236 17.6993 3.78187 17.7433 3.69813C17.7467 3.65458 17.7501 3.61103 17.7501 3.56749C17.7772 2.93103 17.6586 2.28788 17.4011 1.70502C17.1978 1.23606 16.903 0.807291 16.5439 0.438818C16.4253 0.579507 16.2898 0.706798 16.1373 0.81064C15.8629 1.00158 15.5444 1.12887 15.2124 1.17911C14.8803 1.22936 14.5381 1.19921 14.2196 1.09537C13.9317 1.00158 13.6742 0.854187 13.4472 0.653202C13.4336 0.639803 13.42 0.629754 13.4099 0.616355C13.2032 0.432118 12.9694 0.288079 12.7119 0.184236C12.4138 0.0602956 12.0953 0 11.7734 0C11.4515 0 11.1331 0.0636453 10.8349 0.184236C10.5368 0.308177 10.2657 0.482364 10.0387 0.710148C9.80831 0.937931 9.62874 1.20256 9.50676 1.49734C9.3814 1.79212 9.32042 2.10699 9.32042 2.42522C9.32042 2.74345 9.38479 3.05832 9.50676 3.3531C9.60163 3.57754 9.72699 3.78857 9.88623 3.97281C10.0048 4.11685 9.98449 4.32788 9.84219 4.44512C9.72699 4.53892 9.56775 4.54562 9.44578 4.47192C9.43223 4.46522 9.41529 4.45517 9.40173 4.44512C9.17134 4.27094 8.91384 4.1403 8.63941 4.05655C8.31415 3.95606 7.97533 3.92591 7.63652 3.96276C7.29771 3.99961 6.97584 4.1068 6.68107 4.27429C6.3863 4.44512 6.13558 4.66956 5.93229 4.94089C5.73239 5.21222 5.59009 5.51704 5.51555 5.84867C5.44101 6.17695 5.43763 6.51192 5.502 6.84355C5.56638 7.17517 5.7019 7.48335 5.89502 7.76138C6.09153 8.03941 6.33548 8.26719 6.62686 8.44473C6.71495 8.49832 6.76916 8.58542 6.7861 8.68256C6.79965 8.75626 6.78949 8.8333 6.75222 8.90365C6.66413 9.06778 6.45745 9.12808 6.29482 9.04098C5.72562 8.73951 5.08187 8.56532 4.43474 8.54187C3.78761 8.51842 3.1337 8.64236 2.54078 8.9003C1.94786 9.15823 1.41592 9.55685 0.999182 10.0459C0.582442 10.535 0.280899 11.1245 0.125045 11.7442C-0.0308083 12.3639 -0.0409727 13.0238 0.0945523 13.6502C0.230077 14.2766 0.51468 14.8729 0.914479 15.3754C1.31428 15.8778 1.83605 16.2899 2.41881 16.5679C3.00156 16.8459 3.65208 16.99 4.29922 16.9833C4.33649 16.9833 4.37375 16.99 4.40764 17H22.6256C22.6595 16.99 22.6933 16.9833 22.7306 16.9833C23.3947 16.9833 24.0588 16.8258 24.6517 16.531C25.2446 16.2363 25.7664 15.8008 26.1628 15.2715C26.5592 14.7456 26.8269 14.1226 26.9387 13.4761C27.0505 12.8296 27.0098 12.1563 26.8133 11.5265C26.6202 10.9068 26.2746 10.3239 25.8172 9.84828Z" fill="#C4C4C4"/>
</svg>
