<svg width="63" height="24" viewBox="0 0 63 24" fill="none" xmlns="http://www.w3.org/2000/svg">
<path d="M7.34551 9.25319C8.16677 11.717 13.8471 10.9642 16.5847 10.2798C19.6644 9.25319 19.6644 7.20004 18.6378 5.1469C17.6113 3.09375 13.505 4.12032 11.4518 4.12032C9.39866 4.12032 6.31894 6.17347 7.34551 9.25319Z" fill="#C4C4C4"/>
<path d="M24.7425 5.04859C24.5464 7.63823 30.0756 9.14204 32.8647 9.57024C36.1018 9.81531 36.8962 7.9221 36.7441 5.63166C36.5919 3.34122 32.4083 2.69892 30.515 1.90446C28.6218 1.11001 24.9875 1.81154 24.7425 5.04859Z" fill="#C4C4C4"/>
<path d="M42.0668 9.16887C41.8707 11.7585 47.3999 13.2623 50.189 13.6905C53.426 13.9356 52.6669 14.6234 52.5147 12.3329C52.3626 10.0425 49.7325 6.8192 47.8393 6.02474C45.9461 5.23029 42.3118 5.93182 42.0668 9.16887Z" fill="#C4C4C4"/>
<path d="M37.665 5.98302C37.5434 7.58839 40.9711 8.52063 42.7001 8.78609C44.7068 8.93801 44.2362 9.36438 44.1419 7.94449C44.0476 6.5246 42.4172 4.52641 41.2435 4.03391C40.0699 3.54141 37.8169 3.97631 37.665 5.98302Z" fill="#C4C4C4"/>
<path d="M31.9184 16.7504C31.765 18.7768 36.0916 19.9535 38.274 20.2886C40.807 20.4803 45.0327 20.4005 44.9137 18.6082C44.7946 16.8159 37.9169 14.9118 36.4354 14.2901C34.954 13.6685 32.1102 14.2174 31.9184 16.7504Z" fill="#C4C4C4"/>
<path d="M15.5793 21.0463C16.3782 22.4352 19.7204 21.2829 21.2917 20.5331C23.0278 19.5344 25.7468 17.6077 24.8741 16.4922C24.0014 15.3768 18.6736 17.1868 17.4322 17.4388C16.1907 17.6908 14.5806 19.3102 15.5793 21.0463Z" fill="#C4C4C4"/>
<path d="M15.1266 13.5933C16.1188 15.3181 20.2693 13.887 22.2205 12.9559C24.3765 11.7157 27.7531 9.32298 26.6693 7.93779C25.5856 6.5526 18.9692 8.80031 17.4276 9.11324C15.8859 9.42617 13.8863 11.4372 15.1266 13.5933Z" fill="#C4C4C4"/>
<path d="M0.706227 11.5508C0.45113 13.5242 4.62056 14.8991 6.73716 15.3399C9.20391 15.6588 13.3399 15.7998 13.3164 14.0412C13.293 12.2826 6.66676 10.0641 5.25048 9.3794C3.8342 8.69473 1.0251 9.084 0.706227 11.5508Z" fill="#C4C4C4"/>
<path d="M21.8478 14.8329C21.5927 16.8063 25.7622 18.1812 27.8788 18.622C30.3455 18.9409 34.4815 19.0819 34.458 17.3233C34.4346 15.5647 27.8084 13.3462 26.3921 12.6615C24.9758 11.9768 22.1667 12.3661 21.8478 14.8329Z" fill="#C4C4C4"/>
<path d="M51.4261 15.5142C52.4067 16.9763 55.9832 15.4609 57.649 14.5204C59.4766 13.2947 62.3117 10.9775 61.2709 9.82067C60.2301 8.66386 54.5266 11.05 53.1848 11.4199C51.843 11.7898 50.2003 13.6865 51.4261 15.5142Z" fill="#C4C4C4"/>
<path d="M34.2582 6.51625C35.2388 7.9784 38.8154 6.46298 40.4811 5.5225C42.3088 4.29674 45.1438 1.97955 44.103 0.822743C43.0622 -0.334065 37.3587 2.05208 36.0169 2.42199C34.6752 2.79191 33.0324 4.68856 34.2582 6.51625Z" fill="#C4C4C4"/>
<path d="M38.2203 13.6778C39.0484 15.182 41.5697 13.9575 42.7268 13.1573C43.9823 12.0892 45.8996 10.0251 45.0495 8.81568C44.1994 7.60629 40.1765 9.52909 39.2162 9.79385C38.2559 10.0586 37.1853 11.7975 38.2203 13.6778Z" fill="#C4C4C4"/>
<path d="M33.6469 9.3019C33.2447 10.4779 35.1283 11.2316 36.1204 11.4614C37.3037 11.6136 39.3427 11.6349 39.5763 10.5907C39.8099 9.54655 36.8211 8.32889 36.2116 7.94361C35.6021 7.55832 34.1496 7.83194 33.6469 9.3019Z" fill="#C4C4C4"/>
<path d="M20.6469 5.3019C20.2447 6.47787 22.1283 7.23158 23.1204 7.46145C24.3037 7.61359 26.3427 7.63492 26.5763 6.59073C26.8099 5.54655 23.8211 4.32889 23.2116 3.94361C22.6021 3.55832 21.1496 3.83194 20.6469 5.3019Z" fill="#C4C4C4"/>
<path d="M12.6469 16.3019C12.2447 17.4779 14.1283 18.2316 15.1204 18.4614C16.3037 18.6136 18.3427 18.6349 18.5763 17.5907C18.8099 16.5465 15.8211 15.3289 15.2116 14.9436C14.6021 14.5583 13.1496 14.8319 12.6469 16.3019Z" fill="#C4C4C4"/>
<path d="M28.2203 13.6778C29.0484 15.182 31.5697 13.9575 32.7268 13.1573C33.9823 12.0892 35.8996 10.0251 35.0495 8.81568C34.1994 7.60629 30.1765 9.52909 29.2162 9.79385C28.2559 10.0586 27.1853 11.7975 28.2203 13.6778Z" fill="#C4C4C4"/>
<path d="M42.2203 19.6778C43.0484 21.182 45.5697 19.9575 46.7268 19.1573C47.9823 18.0892 49.8996 16.0251 49.0495 14.8157C48.1994 13.6063 44.1765 15.5291 43.2162 15.7938C42.2559 16.0586 41.1853 17.7975 42.2203 19.6778Z" fill="#C4C4C4"/>
<path d="M24.989 23.1729C25.5976 24.2785 27.4507 23.3785 28.3011 22.7904C29.2239 22.0054 30.6331 20.4883 30.0083 19.5994C29.3835 18.7105 26.4268 20.1238 25.7209 20.3183C25.0151 20.5129 24.2283 21.791 24.989 23.1729Z" fill="#C4C4C4"/>
</svg>
