<svg width="62" height="27" viewBox="0 0 62 27" fill="none" xmlns="http://www.w3.org/2000/svg">
<path d="M0.203908 16.792C1.02517 14.3282 6.70555 15.081 9.44308 15.7654C12.5228 16.792 12.5228 18.8452 11.4962 20.8983C10.4697 22.9514 6.36335 21.9249 4.31021 21.9249C2.25706 21.9249 -0.822666 19.8717 0.203908 16.792Z" fill="#C4C4C4"/>
<path d="M17.6009 20.9966C17.4048 18.407 22.934 16.9032 25.7231 16.475C28.9602 16.2299 29.7546 18.1231 29.6025 20.4135C29.4503 22.704 25.2667 23.3463 23.3734 24.1407C21.4802 24.9352 17.8459 24.2337 17.6009 20.9966Z" fill="#C4C4C4"/>
<path d="M34.9253 16.8763C34.7292 14.2867 40.2584 12.7829 43.0475 12.3547C46.2846 12.1096 45.5254 11.4218 45.3733 13.7123C45.2211 16.0027 42.5911 19.226 40.6978 20.0205C38.8046 20.8149 35.1704 20.1134 34.9253 16.8763Z" fill="#C4C4C4"/>
<path d="M49.2972 8.90034C49.1012 6.3107 54.6304 4.80689 57.4195 4.37869C60.6565 4.13362 59.8974 3.44584 59.7452 5.73628C59.5931 8.02672 56.963 11.25 55.0698 12.0445C53.1766 12.8389 49.5423 12.1374 49.2972 8.90034Z" fill="#C4C4C4"/>
<path d="M24.6594 8.90044C24.4633 6.3108 29.9925 4.80699 32.7816 4.37879C36.0187 4.13372 41.419 4.23581 41.2668 6.52625C41.1147 8.81669 32.3252 11.2501 30.432 12.0446C28.5388 12.839 24.9045 12.1375 24.6594 8.90044Z" fill="#C4C4C4"/>
<path d="M2.70864 1.70277C4.0036 -0.548397 9.42069 1.31936 11.9674 2.53464C14.7813 4.15334 19.1883 7.27617 17.7738 9.08407C16.3593 10.892 7.72392 7.95834 5.7118 7.54991C3.69969 7.14148 1.08994 4.51673 2.70864 1.70277Z" fill="#C4C4C4"/>
</svg>
