<svg width="44" height="44" viewBox="0 0 44 44" fill="none" xmlns="http://www.w3.org/2000/svg">
<path fill-rule="evenodd" clip-rule="evenodd" d="M22 0C9.84974 0 0 9.84974 0 22C0 34.1503 9.84974 44 22 44C34.1503 44 44 34.1503 44 22C44 9.84974 34.1503 0 22 0ZM34.1393 19.7994L23.3594 28.6213V23.2202C21.7241 23.1977 17.7692 23.8998 15.0326 26.8885C12.296 29.8771 11.3418 32.8748 11.2068 34C10.7792 31.2694 10.7297 24.9035 13.9524 21.2847C17.1751 17.6659 21.5666 16.5662 23.3594 16.4687V11L34.1393 19.7994Z" fill="#EEA46B"/>
</svg>
