<svg width="43" height="51" viewBox="0 0 43 51" fill="none" xmlns="http://www.w3.org/2000/svg">
<path d="M37.6435 10.3507C37.3151 10.0214 36.7813 10.0214 36.4529 10.3507L33.4091 13.3946C33.0798 13.7237 33.0798 14.256 33.4091 14.5851C33.5733 14.7493 33.7889 14.8318 34.0044 14.8318C34.2191 14.8318 34.4347 14.7501 34.5996 14.5851L37.6435 11.5413C37.9728 11.2121 37.9728 10.68 37.6435 10.3507Z" fill="#01AA4F"/>
<path d="M40.1697 12.8767L35.1176 7.82471C34.7893 7.49544 34.2554 7.49544 33.9271 7.82471C33.5979 8.15398 33.5979 8.68612 33.9271 9.01529L38.9791 14.0673C39.1433 14.2315 39.3589 14.314 39.5744 14.314C39.79 14.314 40.0055 14.2315 40.1697 14.0673C40.4989 13.7381 40.4989 13.206 40.1697 12.8767Z" fill="#01AA4F"/>
<path d="M8.69134 13.3946L5.64749 10.3507C5.31823 10.0214 4.7853 10.0214 4.45691 10.3507C4.12764 10.68 4.12764 11.2121 4.45691 11.5413L7.50076 14.5851C7.66495 14.7493 7.88055 14.8318 8.09605 14.8318C8.31155 14.8318 8.52715 14.7501 8.69134 14.5851C9.02051 14.256 9.02051 13.7238 8.69134 13.3946Z" fill="#01AA4F"/>
<path d="M8.1734 7.82471C7.84502 7.49544 7.3112 7.49544 6.98282 7.82471L1.93079 12.8767C1.60152 13.2059 1.60152 13.7381 1.93079 14.0673C2.09498 14.2315 2.31058 14.314 2.52608 14.314C2.74158 14.314 2.95718 14.2315 3.12137 14.0673L8.1734 9.01529C8.50257 8.68612 8.50257 8.15398 8.1734 7.82471Z" fill="#01AA4F"/>
<path d="M24.0273 26.4937C22.3863 24.8527 19.7154 24.8527 18.0735 26.4937C16.4325 28.1347 16.4325 30.8056 18.0735 32.4475C18.8936 33.2676 19.9723 33.6785 21.05 33.6785C22.1277 33.6785 23.2064 33.2676 24.0273 32.4475C25.6684 30.8064 25.6684 28.1356 24.0273 26.4937ZM22.8359 31.2561C21.8516 32.2412 20.2484 32.2412 19.2641 31.2561C18.2799 30.271 18.2799 28.6686 19.2641 27.6835C19.7567 27.1909 20.4034 26.945 21.05 26.945C21.6966 26.945 22.3433 27.1917 22.8359 27.6835C23.8202 28.6686 23.8202 30.271 22.8359 31.2561Z" fill="#01AA4F"/>
<path d="M32.5915 17.9288C32.2622 17.5995 31.7293 17.5995 31.4009 17.9288L22.8361 26.4929C22.5068 26.822 22.5068 27.3543 22.8361 27.6834C23.0003 27.8476 23.2159 27.9301 23.4314 27.9301C23.6469 27.9301 23.8625 27.8484 24.0266 27.6834L32.5915 19.1194C32.9208 18.7902 32.9208 18.258 32.5915 17.9288Z" fill="#01AA4F"/>
<path d="M19.2641 31.2568C18.9357 30.9276 18.4027 30.9276 18.0735 31.2568L15.0961 34.2333C14.7678 34.5617 14.7678 35.0947 15.0961 35.4239C15.2603 35.5881 15.4759 35.6706 15.6914 35.6706C15.907 35.6706 16.1225 35.5881 16.2867 35.4239L19.2641 32.4474C19.5924 32.1191 19.5924 31.5861 19.2641 31.2568Z" fill="#01AA4F"/>
<path d="M26.102 0H15.998C15.5332 0 15.156 0.377225 15.156 0.841972V5.05203C15.156 5.51677 15.5332 5.894 15.998 5.894H26.102C26.5668 5.894 26.944 5.51677 26.944 5.05203V0.841972C26.944 0.377225 26.5668 0 26.102 0ZM25.2601 4.21006H16.84V1.68404H25.2601V4.21006Z" fill="#01AA4F"/>
<path d="M21.0501 8.42001C9.44305 8.42001 0 17.8631 0 29.4701C0 41.0771 9.44305 50.5203 21.0501 50.5203C32.6571 50.5203 42.1002 41.0772 42.1002 29.4702C42.1002 17.8632 32.6571 8.42001 21.0501 8.42001ZM21.0501 48.8362C10.3718 48.8362 1.68394 40.1484 1.68394 29.4701C1.68394 18.7918 10.3718 10.1041 21.0501 10.1041C31.7284 10.1041 40.4162 18.7919 40.4162 29.4702C40.4162 40.1485 31.7284 48.8362 21.0501 48.8362Z" fill="#01AA4F"/>
<path d="M22.7341 4.21005H19.3661C18.9014 4.21005 18.5242 4.58728 18.5242 5.05202V9.26208C18.5242 9.72683 18.9014 10.1041 19.3661 10.1041H22.7341C23.1989 10.1041 23.5761 9.72683 23.5761 9.26208V5.05202C23.5761 4.58728 23.1989 4.21005 22.7341 4.21005ZM21.8921 8.42001H20.208V5.894H21.8921V8.42001Z" fill="#01AA4F"/>
<path d="M21.05 11.7881C20.5852 11.7881 20.208 12.1653 20.208 12.6301V14.3141C20.208 14.7789 20.5852 15.1561 21.05 15.1561C21.5147 15.1561 21.892 14.7789 21.892 14.3141V12.6301C21.892 12.1653 21.5147 11.7881 21.05 11.7881Z" fill="#01AA4F"/>
<path d="M21.05 43.7842C20.5852 43.7842 20.208 44.1614 20.208 44.6262V46.3102C20.208 46.775 20.5852 47.1522 21.05 47.1522C21.5147 47.1522 21.892 46.775 21.892 46.3102V44.6262C21.892 44.1614 21.5147 43.7842 21.05 43.7842Z" fill="#01AA4F"/>
<path d="M37.8905 28.6281H36.2065C35.7417 28.6281 35.3645 29.0053 35.3645 29.4701C35.3645 29.9348 35.7417 30.3121 36.2065 30.3121H37.8905C38.3553 30.3121 38.7325 29.9348 38.7325 29.4701C38.7325 29.0053 38.3553 28.6281 37.8905 28.6281Z" fill="#01AA4F"/>
<path d="M5.89442 28.6281H4.21038C3.74563 28.6281 3.36841 29.0053 3.36841 29.4701C3.36841 29.9348 3.74563 30.3121 4.21038 30.3121H5.89442C6.35917 30.3121 6.73639 29.9348 6.73639 29.4701C6.73639 29.0053 6.35917 28.6281 5.89442 28.6281Z" fill="#01AA4F"/>
</svg>
