<svg width="21" height="17" viewBox="0 0 21 17" fill="none" xmlns="http://www.w3.org/2000/svg">
<path d="M17.2095 6.67386C17.211 6.62609 17.2117 6.57911 17.2117 6.5328C17.2117 3.45992 14.7118 0.959961 11.6389 0.959961C8.69937 0.959961 6.28413 3.24772 6.08006 6.13617C5.54354 5.90819 4.96512 5.78989 4.3736 5.78989C1.96197 5.78989 0 7.75186 0 10.1635C0 11.2105 0.375768 12.2235 1.05806 13.0159C1.2234 13.2079 1.5131 13.2295 1.70506 13.0642C1.89707 12.8988 1.91872 12.6092 1.75338 12.4172C1.21441 11.7912 0.917551 10.9908 0.917551 10.1635C0.917551 8.25786 2.46791 6.7075 4.3736 6.7075C5.05822 6.7075 5.72057 6.90808 6.28902 7.28752C6.43473 7.38478 6.62307 7.39059 6.77453 7.30244C6.92592 7.2143 7.01395 7.04761 7.00135 6.87291L6.9989 6.83914C6.99107 6.73197 6.98367 6.63067 6.98367 6.5328C6.98367 3.96586 9.07201 1.87751 11.639 1.87751C14.2058 1.87751 16.2942 3.96586 16.2942 6.5328C16.2942 6.70102 16.2822 6.88349 16.2574 7.09073C16.241 7.22824 16.2875 7.36575 16.384 7.46503C16.4806 7.56431 16.6167 7.61502 16.7547 7.60206C16.8624 7.59221 16.9516 7.58768 17.0356 7.58768C18.7157 7.58768 20.0824 8.95446 20.0824 10.6345C20.0824 11.4483 19.7655 12.2135 19.1901 12.789C19.0109 12.9681 19.0109 13.2586 19.1901 13.4377C19.2797 13.5274 19.3971 13.5721 19.5145 13.5721C19.6319 13.5721 19.7493 13.5274 19.8389 13.4377C20.5877 12.689 21 11.6934 21 10.6345C20.9999 8.50682 19.3151 6.76525 17.2095 6.67386Z" fill="#999999"/>
<path d="M15.2195 11.2174C13.6355 11.2174 12.3468 12.5061 12.3468 14.0901C12.3468 14.3434 12.5522 14.5489 12.8056 14.5489C13.0589 14.5489 13.2643 14.3434 13.2643 14.0901C13.2643 13.012 14.1414 12.135 15.2195 12.135C16.2976 12.135 17.1746 13.012 17.1746 14.0901C17.1746 15.1682 16.2976 16.0453 15.2195 16.0453C15.1941 16.0453 15.1694 16.0478 15.1452 16.0518H3.96073C3.70736 16.0518 3.50195 16.2572 3.50195 16.5106C3.50195 16.7639 3.70736 16.9694 3.96073 16.9694H15.2195C15.2499 16.9694 15.2796 16.9662 15.3085 16.9605C16.8514 16.9132 18.0922 15.6442 18.0922 14.0901C18.0922 12.5061 16.8035 11.2174 15.2195 11.2174Z" fill="#999999"/>
<path d="M8.45882 14.5434C10.0017 14.496 11.2425 13.2271 11.2425 11.673C11.2425 10.0889 9.95381 8.80023 8.36975 8.80023C6.78575 8.80023 5.49708 10.0889 5.49708 11.673C5.49708 11.9263 5.70249 12.1317 5.95586 12.1317C6.20922 12.1317 6.41463 11.9263 6.41463 11.673C6.41463 10.5948 7.29169 9.71778 8.36975 9.71778C9.44788 9.71778 10.3249 10.5948 10.3249 11.673C10.3249 12.751 9.44788 13.6281 8.36975 13.6281C8.34443 13.6281 8.31972 13.6307 8.29549 13.6346H2.54789C2.29452 13.6346 2.08911 13.84 2.08911 14.0934C2.08911 14.3468 2.29452 14.5522 2.54789 14.5522H8.36975C8.40021 14.5522 8.43001 14.549 8.45882 14.5434Z" fill="#999999"/>
</svg>
