<svg width="16" height="13" viewBox="0 0 16 13" fill="none" xmlns="http://www.w3.org/2000/svg">
<path d="M12.5666 0.773159C8.37863 -1.96514 8.53972 3.59207 4.31145 1.77989C0.0831754 -0.032299 0.284532 5.00145 2.70069 6.00818C5.11685 7.01491 1.8953 7.21625 0.284532 9.43106C-1.32623 11.6459 4.31145 12.2499 6.92894 9.43106C9.54643 6.61222 8.53971 8.62567 12.5666 9.43106C16.5935 10.2364 16.3922 7.4176 15.3855 6.00818C14.3787 4.59876 12.5666 6.41087 12.5666 5.00145C12.5666 3.59203 17.8016 4.19604 12.5666 0.773159Z" fill="#FFDB57"/>
<path d="M8.86496 9.8338C7.97284 9.8338 7.3781 10.4569 7.19224 10.7685C5.24073 12.0147 7.33162 13.1846 7.33162 12.2499C7.33162 11.3153 7.74979 12.3793 9.14372 11.4446C10.5377 10.5099 9.9801 9.8338 8.86496 9.8338Z" fill="#FFDB57"/>
</svg>
