<svg width="27" height="10" viewBox="0 0 27 10" fill="none" xmlns="http://www.w3.org/2000/svg">
<path d="M3.06205 3.85708C3.40438 4.88407 5.77216 4.57026 6.91326 4.28499C8.19699 3.85708 8.197 3.00125 7.76909 2.14543C7.34118 1.2896 5.62952 1.71751 4.7737 1.71751C3.91787 1.71751 2.63413 2.57334 3.06205 3.85708Z" fill="#698056"/>
<path d="M10.3136 2.10443C10.2319 3.18389 12.5366 3.81073 13.6992 3.98922C15.0485 4.09137 15.3797 3.30221 15.3163 2.34748C15.2529 1.39274 13.509 1.125 12.7198 0.793847C11.9306 0.46269 10.4157 0.755114 10.3136 2.10443Z" fill="#698056"/>
<path d="M17.5349 3.82192C17.4532 4.90137 19.7579 5.52821 20.9205 5.7067C22.2699 5.80886 21.9534 6.09555 21.89 5.14081C21.8266 4.18607 20.7303 2.84249 19.9411 2.51133C19.152 2.18018 17.6371 2.4726 17.5349 3.82192Z" fill="#698056"/>
<path d="M15.7002 2.49392C15.6495 3.16309 17.0783 3.55168 17.799 3.66233C18.6354 3.72566 18.4393 3.90339 18.4 3.31153C18.3606 2.71967 17.681 1.88675 17.1918 1.68146C16.7026 1.47617 15.7635 1.65745 15.7002 2.49392Z" fill="#698056"/>
<path d="M13.3049 6.98214C13.2409 7.82681 15.0444 8.31731 15.9541 8.45697C17.0099 8.53691 18.7714 8.50361 18.7217 7.75653C18.6721 7.00945 15.8052 6.21574 15.1877 5.95661C14.5702 5.69748 13.3848 5.9263 13.3049 6.98214Z" fill="#698056"/>
<path d="M6.49394 8.77286C6.82698 9.35181 8.22013 8.87146 8.87507 8.55892C9.59876 8.14263 10.7321 7.33951 10.3684 6.87456C10.0046 6.40961 7.78376 7.16407 7.26629 7.26911C6.74882 7.37415 6.07765 8.04917 6.49394 8.77286Z" fill="#698056"/>
<path d="M6.30535 5.66618C6.71892 6.38515 8.449 5.78863 9.26235 5.40051C10.161 4.88354 11.5685 3.88618 11.1168 3.30879C10.665 2.73139 7.90709 3.66832 7.26448 3.79876C6.62186 3.9292 5.78837 4.76748 6.30535 5.66618Z" fill="#698056"/>
<path d="M0.294354 4.81478C0.188021 5.63736 1.92599 6.2105 2.80826 6.39424C3.83649 6.52715 5.56051 6.58594 5.55073 5.85289C5.54095 5.11983 2.77892 4.19507 2.18856 3.90968C1.5982 3.62428 0.427271 3.78654 0.294354 4.81478Z" fill="#698056"/>
<path d="M9.1071 6.18288C9.00076 7.00546 10.7387 7.5786 11.621 7.76234C12.6492 7.89526 14.3733 7.95405 14.3635 7.22099C14.3537 6.48794 11.5917 5.56318 11.0013 5.27778C10.4109 4.99238 9.24001 5.15464 9.1071 6.18288Z" fill="#698056"/>
<path d="M21.4364 6.4669C21.8451 7.07638 23.336 6.4447 24.0303 6.05267C24.7922 5.54173 25.9739 4.57584 25.5401 4.09364C25.1062 3.61145 22.7288 4.60607 22.1695 4.76027C21.6102 4.91446 20.9254 5.70505 21.4364 6.4669Z" fill="#698056"/>
<path d="M14.2801 2.7162C14.6889 3.32568 16.1797 2.69399 16.8741 2.30197C17.6359 1.79103 18.8176 0.825141 18.3838 0.342943C17.95 -0.139256 15.5725 0.855372 15.0132 1.00957C14.4539 1.16376 13.7692 1.95435 14.2801 2.7162Z" fill="#698056"/>
<path d="M15.9316 5.70139C16.2767 6.3284 17.3277 5.81799 17.81 5.48441C18.3334 5.03922 19.1326 4.1788 18.7782 3.67469C18.4239 3.17057 16.747 3.97206 16.3467 4.08242C15.9464 4.19279 15.5001 4.91762 15.9316 5.70139Z" fill="#698056"/>
<path d="M14.0254 3.87739C13.8578 4.36758 14.6429 4.68175 15.0565 4.77757C15.5497 4.84099 16.3997 4.84988 16.497 4.41462C16.5944 3.97937 15.3485 3.4718 15.0945 3.31121C14.8404 3.15061 14.235 3.26466 14.0254 3.87739Z" fill="#698056"/>
<path d="M8.60648 2.21C8.43884 2.70019 9.22398 3.01436 9.63751 3.11018C10.1308 3.1736 10.9807 3.18249 11.0781 2.74723C11.1754 2.31198 9.9296 1.80442 9.67555 1.64382C9.4215 1.48322 8.81604 1.59727 8.60648 2.21Z" fill="#698056"/>
<path d="M5.27177 6.79524C5.10412 7.28542 5.88927 7.5996 6.3028 7.69541C6.79606 7.75883 7.646 7.76772 7.74336 7.33247C7.84072 6.89722 6.59488 6.38965 6.34083 6.22905C6.08678 6.06845 5.48132 6.18251 5.27177 6.79524Z" fill="#698056"/>
<path d="M11.7631 5.70139C12.1083 6.3284 13.1592 5.81799 13.6416 5.48441C14.1649 5.03922 14.9641 4.1788 14.6098 3.67469C14.2554 3.17057 12.5785 3.97206 12.1782 4.08242C11.7779 4.19279 11.3317 4.91762 11.7631 5.70139Z" fill="#698056"/>
<path d="M17.5991 8.20243C17.9442 8.82944 18.9952 8.31903 19.4775 7.98545C20.0009 7.54026 20.8 6.67984 20.4457 6.17572C20.0914 5.67161 18.4145 6.4731 18.0142 6.58346C17.6139 6.69382 17.1676 7.41866 17.5991 8.20243Z" fill="#698056"/>
<path d="M10.4164 9.65932C10.6701 10.1202 11.4425 9.74502 11.797 9.49985C12.1817 9.17265 12.7691 8.54026 12.5086 8.16975C12.2482 7.79924 11.0157 8.38831 10.7215 8.46943C10.4273 8.55054 10.0993 9.08328 10.4164 9.65932Z" fill="#698056"/>
</svg>
