<svg width="14" height="9" viewBox="0 0 14 9" fill="none" xmlns="http://www.w3.org/2000/svg">
<path d="M13.3867 5.21379C13.1495 4.96197 12.8509 4.76867 12.5276 4.65163C12.2026 4.53458 11.8512 4.49734 11.5104 4.5399C11.2697 4.57005 11.0378 4.64099 10.82 4.74739C10.7322 4.78995 10.6268 4.75271 10.5846 4.66581C10.5723 4.63921 10.567 4.61261 10.567 4.58424C10.567 4.52926 10.5934 4.47606 10.6408 4.44059C10.8323 4.30227 10.9816 4.11429 11.073 3.89616C11.2065 3.58049 11.2083 3.23113 11.08 2.91192C10.9518 2.59448 10.7093 2.34443 10.3966 2.21143C10.0944 2.08197 9.76065 2.07488 9.45321 2.19192C9.43915 2.19901 9.4251 2.20433 9.41104 2.20788C9.32496 2.23626 9.22834 2.19192 9.1932 2.10502C9.17388 2.05537 9.17739 2.00217 9.20023 1.95783C9.20198 1.93478 9.20374 1.91172 9.20374 1.88867C9.2178 1.55172 9.15631 1.21123 9.02279 0.90266C8.91738 0.654384 8.76454 0.427389 8.57832 0.232315C8.51683 0.306798 8.44656 0.374187 8.3675 0.429163C8.2252 0.530246 8.06006 0.597635 7.88789 0.624236C7.71573 0.650837 7.53829 0.634877 7.37315 0.579901C7.22382 0.530246 7.0903 0.452217 6.9726 0.345813C6.96557 0.338719 6.95854 0.333399 6.95327 0.326305C6.84611 0.228768 6.72489 0.152512 6.59137 0.0975369C6.43677 0.0319212 6.27163 0 6.10474 0C5.93784 0 5.7727 0.0336946 5.6181 0.0975369C5.4635 0.163153 5.32296 0.255369 5.20525 0.375961C5.08579 0.496552 4.99268 0.63665 4.92943 0.792709C4.86443 0.948768 4.83281 1.11547 4.83281 1.28394C4.83281 1.45241 4.86619 1.61911 4.92943 1.77517C4.97862 1.89399 5.04363 2.00571 5.1262 2.10325C5.18768 2.17951 5.17714 2.29123 5.10336 2.3533C5.04363 2.40296 4.96106 2.4065 4.89781 2.36749C4.89078 2.36394 4.882 2.35862 4.87497 2.3533C4.75551 2.26108 4.62199 2.19192 4.47969 2.14759C4.31104 2.09438 4.13536 2.07842 3.95968 2.09793C3.784 2.11744 3.6171 2.17419 3.46426 2.26286C3.31142 2.3533 3.18141 2.47212 3.076 2.61576C2.97235 2.75941 2.89857 2.92079 2.85992 3.09635C2.82127 3.27015 2.81951 3.44749 2.85289 3.62305C2.88627 3.79862 2.95654 3.96177 3.05668 4.10897C3.15857 4.25616 3.28506 4.37675 3.43615 4.47074C3.48183 4.49911 3.50993 4.54522 3.51872 4.59665C3.52575 4.63566 3.52048 4.67645 3.50115 4.71369C3.45547 4.80059 3.34831 4.83251 3.26398 4.7864C2.96884 4.6268 2.63505 4.53458 2.2995 4.52217C1.96395 4.50975 1.62488 4.57537 1.31744 4.71192C1.01 4.84847 0.734181 5.05951 0.518094 5.31842C0.302007 5.57734 0.145651 5.88946 0.0648384 6.21754C-0.0159747 6.54562 -0.0212451 6.89498 0.0490271 7.2266C0.119299 7.55823 0.266871 7.87389 0.474174 8.1399C0.681477 8.40591 0.952025 8.62404 1.2542 8.77123C1.55637 8.91842 1.89367 8.99468 2.22922 8.99113C2.24855 8.99113 2.26787 8.99468 2.28544 9H11.7318C11.7494 8.99468 11.7669 8.99113 11.7862 8.99113C12.1306 8.99113 12.4749 8.90778 12.7824 8.75172C13.0898 8.59566 13.3603 8.36512 13.5659 8.08493C13.7714 7.8065 13.9102 7.47665 13.9682 7.13438C14.0262 6.79212 14.0051 6.43566 13.9032 6.10227C13.8031 5.77419 13.6239 5.46562 13.3867 5.21379Z" fill="#C4C4C4"/>
</svg>
