<svg width="65" height="65" viewBox="0 0 65 65" fill="none" xmlns="http://www.w3.org/2000/svg">
<circle cx="32.5" cy="32.5" r="31" fill="white" stroke="#01AA4F" stroke-width="3"/>
<path d="M40.9062 47H25.0938C23.3887 47 22 45.586 22 43.85V31.95C22 30.214 23.3887 28.8 25.0938 28.8H40.9062C42.6112 28.8 44 30.214 44 31.95V43.85C44 45.586 42.6112 47 40.9062 47ZM25.0938 30.9C24.5259 30.9 24.0625 31.3718 24.0625 31.95V43.85C24.0625 44.4282 24.5259 44.9 25.0938 44.9H40.9062C41.4741 44.9 41.9375 44.4282 41.9375 43.85V31.95C41.9375 31.3718 41.4741 30.9 40.9062 30.9H25.0938Z" fill="#01AA4F"/>
<path d="M38.8438 30.9C38.2745 30.9 37.8125 30.4296 37.8125 29.85V26C37.8125 23.298 35.6537 21.1 33 21.1C30.3463 21.1 28.1875 23.298 28.1875 26V29.85C28.1875 30.4296 27.7255 30.9 27.1562 30.9C26.587 30.9 26.125 30.4296 26.125 29.85V26C26.125 22.1402 29.2091 19 33 19C36.7909 19 39.875 22.1402 39.875 26V29.85C39.875 30.4296 39.413 30.9 38.8438 30.9Z" fill="#01AA4F"/>
</svg>
