<svg width="26" height="20" viewBox="0 0 26 20" fill="none" xmlns="http://www.w3.org/2000/svg">
<path d="M24.7826 0H0.434783C0.194783 0 0 0.194348 0 0.434783V19.5652C0 19.8057 0.194783 20 0.434783 20H24.7826C25.0226 20 25.2174 19.8057 25.2174 19.5652V0.434783C25.2174 0.194348 25.0226 0 24.7826 0ZM24.3478 19.1304H0.869565V0.869565H24.3478V19.1304Z" fill="#BDBDBD"/>
<path d="M3.04353 17.3912C3.14527 17.3912 3.24788 17.3555 3.33049 17.2829L10.4231 11.0386L14.9022 15.5173C15.0722 15.6873 15.347 15.6873 15.517 15.5173C15.687 15.3473 15.687 15.0725 15.517 14.9025L13.427 12.8125L17.4187 8.44117L22.3148 12.9294C22.4918 13.0916 22.767 13.0794 22.9292 12.9025C23.0914 12.7255 23.0796 12.4503 22.9022 12.2881L17.6848 7.50552C17.5996 7.42769 17.4861 7.38899 17.3718 7.3916C17.2566 7.39682 17.1479 7.44769 17.0701 7.53291L12.8118 12.1968L10.7496 10.1346C10.587 9.97247 10.327 9.96421 10.1548 10.1155L2.75614 16.6299C2.57571 16.7886 2.55832 17.0633 2.71701 17.2438C2.8031 17.3416 2.9231 17.3912 3.04353 17.3912Z" fill="#BDBDBD"/>
</svg>
