<svg width="65" height="65" viewBox="0 0 65 65" fill="none" xmlns="http://www.w3.org/2000/svg">
<circle cx="32.5" cy="32.5" r="31" fill="white" stroke="#01AA4F" stroke-width="3"/>
<path fill-rule="evenodd" clip-rule="evenodd" d="M32 34C35.866 34 39 30.866 39 27C39 23.134 35.866 20 32 20C28.134 20 25 23.134 25 27C25 30.866 28.134 34 32 34ZM32 32C34.7614 32 37 29.7614 37 27C37 24.2386 34.7614 22 32 22C29.2386 22 27 24.2386 27 27C27 29.7614 29.2386 32 32 32Z" fill="#01AA4F"/>
<path d="M41.3388 36.6612C43.683 39.0054 45 42.1848 45 45.5H43C43 39.701 38.299 35 32.5 35C26.701 35 22 39.701 22 45.5L20 45.5C20 42.1848 21.317 39.0054 23.6612 36.6612C26.0054 34.317 29.1848 33 32.5 33C35.8152 33 38.9946 34.317 41.3388 36.6612Z" fill="#01AA4F"/>
</svg>
