<svg width="25" height="23" viewBox="0 0 25 23" fill="none" xmlns="http://www.w3.org/2000/svg">
<path d="M12.4984 7.13623L12.4961 12.602C12.4961 12.8095 12.5785 13.0078 12.725 13.1543L16.635 17.0636L17.7398 15.9589L14.0586 12.2784L14.0608 7.13623H12.4984Z" fill="white"/>
<path d="M14.0625 0.88623C8.56336 0.88623 4.01212 4.97025 3.24987 10.2612H0L3.90625 14.1675L7.81249 10.2612H4.82862C5.57604 5.83447 9.42622 2.44875 14.0625 2.44875C19.2322 2.44875 23.4375 6.65406 23.4375 11.8238C23.4375 16.9935 19.2322 21.1988 14.0625 21.1988C11.1565 21.1988 8.4618 19.8835 6.66962 17.59L5.43824 18.5513C7.52867 21.2262 10.672 22.7612 14.0625 22.7612C20.0935 22.7612 25 17.854 25 11.8238C25 5.79351 20.0935 0.886276 14.0625 0.88623Z" fill="white"/>
</svg>
